<svg width="135" height="40" viewBox="0 0 135 40" fill="none" xmlns="http://www.w3.org/2000/svg">
<path fill-rule="evenodd" clip-rule="evenodd" d="M8.00001 -0.00012207C3.58173 -0.000126103 0 3.5816 0 7.99988V31.9999L127 32C131.418 32 135 28.4183 135 24V7.99999C135 3.58171 131.418 -1.05104e-05 127 -1.45056e-05L8.00001 -0.00012207ZM0 32L7.96461 40V32H0Z" fill="#6851FF"/>
<path fill-rule="evenodd" clip-rule="evenodd" d="M19.5753 9.59998C19.7875 9.59998 19.9909 9.68426 20.141 9.83429C20.291 9.98432 20.3753 10.1878 20.3753 10.4V11.2H21.1753C21.3875 11.2 21.5909 11.2843 21.741 11.4343C21.891 11.5843 21.9753 11.7878 21.9753 12C21.9753 12.2121 21.891 12.4156 21.741 12.5657C21.5909 12.7157 21.3875 12.8 21.1753 12.8H20.3753V13.6C20.3753 13.8121 20.291 14.0156 20.141 14.1657C19.9909 14.3157 19.7875 14.4 19.5753 14.4C19.3631 14.4 19.1596 14.3157 19.0096 14.1657C18.8596 14.0156 18.7753 13.8121 18.7753 13.6V12.8H17.9753C17.7631 12.8 17.5596 12.7157 17.4096 12.5657C17.2596 12.4156 17.1753 12.2121 17.1753 12C17.1753 11.7878 17.2596 11.5843 17.4096 11.4343C17.5596 11.2843 17.7631 11.2 17.9753 11.2H18.7753V10.4C18.7753 10.1878 18.8596 9.98432 19.0096 9.83429C19.1596 9.68426 19.3631 9.59998 19.5753 9.59998ZM19.5753 17.6C19.7875 17.6 19.9909 17.6843 20.141 17.8343C20.291 17.9843 20.3753 18.1878 20.3753 18.4V19.2H21.1753C21.3875 19.2 21.5909 19.2843 21.741 19.4343C21.891 19.5843 21.9753 19.7878 21.9753 20C21.9753 20.2121 21.891 20.4156 21.741 20.5657C21.5909 20.7157 21.3875 20.8 21.1753 20.8H20.3753V21.6C20.3753 21.8121 20.291 22.0156 20.141 22.1657C19.9909 22.3157 19.7875 22.4 19.5753 22.4C19.3631 22.4 19.1596 22.3157 19.0096 22.1657C18.8596 22.0156 18.7753 21.8121 18.7753 21.6V20.8H17.9753C17.7631 20.8 17.5596 20.7157 17.4096 20.5657C17.2596 20.4156 17.1753 20.2121 17.1753 20C17.1753 19.7878 17.2596 19.5843 17.4096 19.4343C17.5596 19.2843 17.7631 19.2 17.9753 19.2H18.7753V18.4C18.7753 18.1878 18.8596 17.9843 19.0096 17.8343C19.1596 17.6843 19.3631 17.6 19.5753 17.6ZM25.1753 9.59998C25.3518 9.59992 25.5235 9.65827 25.6634 9.76593C25.8033 9.87358 25.9037 10.0245 25.9489 10.1952L26.8921 13.76L29.5753 15.3072C29.6969 15.3774 29.7979 15.4784 29.8681 15.6C29.9383 15.7216 29.9753 15.8596 29.9753 16C29.9753 16.1404 29.9383 16.2783 29.8681 16.4C29.7979 16.5216 29.6969 16.6226 29.5753 16.6928L26.8921 18.2408L25.9481 21.8048C25.9028 21.9753 25.8024 22.126 25.6626 22.2336C25.5228 22.3411 25.3513 22.3994 25.1749 22.3994C24.9985 22.3994 24.827 22.3411 24.6872 22.2336C24.5473 22.126 24.447 21.9753 24.4017 21.8048L23.4585 18.24L20.7753 16.6928C20.6537 16.6226 20.5527 16.5216 20.4825 16.4C20.4123 16.2783 20.3753 16.1404 20.3753 16C20.3753 15.8596 20.4123 15.7216 20.4825 15.6C20.5527 15.4784 20.6537 15.3774 20.7753 15.3072L23.4585 13.7592L24.4025 10.1952C24.4477 10.0246 24.5479 9.87381 24.6877 9.76617C24.8275 9.65852 24.9989 9.6001 25.1753 9.59998Z" fill="white"/>
<path d="M35.7072 21L38.7912 12.06H40.9032L43.9872 21H42.2112L41.5752 19.08H38.1192L37.4712 21H35.7072ZM38.5872 17.64H41.1072L39.6192 13.188H40.0752L38.5872 17.64ZM45.4822 21V12.06H48.8182C49.4262 12.06 49.9622 12.172 50.4262 12.396C50.8982 12.612 51.2662 12.932 51.5302 13.356C51.7942 13.772 51.9262 14.28 51.9262 14.88C51.9262 15.472 51.7902 15.98 51.5182 16.404C51.2542 16.82 50.8902 17.14 50.4262 17.364C49.9622 17.588 49.4262 17.7 48.8182 17.7H47.1142V21H45.4822ZM47.1142 16.26H48.8422C49.1382 16.26 49.3942 16.204 49.6102 16.092C49.8262 15.972 49.9942 15.808 50.1142 15.6C50.2342 15.392 50.2942 15.152 50.2942 14.88C50.2942 14.6 50.2342 14.36 50.1142 14.16C49.9942 13.952 49.8262 13.792 49.6102 13.68C49.3942 13.56 49.1382 13.5 48.8422 13.5H47.1142V16.26ZM52.3166 21L55.4006 12.06H57.5126L60.5966 21H58.8206L58.1846 19.08H54.7286L54.0806 21H52.3166ZM55.1966 17.64H57.7166L56.2286 13.188H56.6846L55.1966 17.64ZM62.0915 21V12.06H65.4155C66.0235 12.06 66.5595 12.172 67.0235 12.396C67.4955 12.612 67.8635 12.932 68.1275 13.356C68.3915 13.772 68.5235 14.28 68.5235 14.88C68.5235 15.496 68.3755 16.02 68.0795 16.452C67.7915 16.884 67.3995 17.204 66.9035 17.412L68.9555 21H67.1075L64.9115 17.076L65.9675 17.7H63.7235V21H62.0915ZM63.7235 16.26H65.4395C65.7355 16.26 65.9915 16.204 66.2075 16.092C66.4235 15.972 66.5915 15.808 66.7115 15.6C66.8315 15.392 66.8915 15.152 66.8915 14.88C66.8915 14.6 66.8315 14.36 66.7115 14.16C66.5915 13.952 66.4235 13.792 66.2075 13.68C65.9915 13.56 65.7355 13.5 65.4395 13.5H63.7235V16.26ZM71.8748 21V13.5H69.5588V12.06H75.7988V13.5H73.5188V21H71.8748ZM77.2947 21V12.06H78.8547L82.2027 16.608H81.4587L84.7347 12.06H86.2947V21H84.6507V13.92L85.2867 14.076L81.8907 18.6H81.6987L78.3867 14.076L78.9267 13.92V21H77.2947ZM88.5056 21V12.06H94.4456V13.5H90.1376V15.792H94.2056V17.232H90.1376V19.56H94.4456V21H88.5056ZM96.1423 21V12.06H97.4143L102.334 18.684L101.674 18.816V12.06H103.306V21H102.022L97.1743 14.328L97.7743 14.196V21H96.1423ZM107.121 21V13.5H104.805V12.06H111.045V13.5H108.765V21H107.121ZM115.733 21.144C115.165 21.144 114.637 21.04 114.149 20.832C113.669 20.624 113.253 20.336 112.901 19.968C112.557 19.592 112.305 19.156 112.145 18.66L113.501 18.072C113.717 18.584 114.029 18.988 114.437 19.284C114.845 19.572 115.305 19.716 115.817 19.716C116.105 19.716 116.353 19.672 116.561 19.584C116.777 19.488 116.941 19.36 117.053 19.2C117.173 19.04 117.233 18.848 117.233 18.624C117.233 18.36 117.153 18.144 116.993 17.976C116.841 17.8 116.609 17.664 116.297 17.568L114.581 17.016C113.885 16.8 113.361 16.476 113.009 16.044C112.657 15.612 112.481 15.104 112.481 14.52C112.481 14.008 112.605 13.556 112.853 13.164C113.109 12.772 113.461 12.468 113.909 12.252C114.365 12.028 114.885 11.916 115.469 11.916C116.005 11.916 116.497 12.012 116.945 12.204C117.393 12.388 117.777 12.648 118.097 12.984C118.425 13.312 118.669 13.7 118.829 14.148L117.485 14.748C117.309 14.3 117.045 13.956 116.693 13.716C116.341 13.468 115.933 13.344 115.469 13.344C115.197 13.344 114.957 13.392 114.749 13.488C114.541 13.576 114.377 13.704 114.257 13.872C114.145 14.032 114.089 14.224 114.089 14.448C114.089 14.696 114.169 14.916 114.329 15.108C114.489 15.292 114.733 15.436 115.061 15.54L116.705 16.056C117.417 16.288 117.949 16.608 118.301 17.016C118.661 17.424 118.841 17.928 118.841 18.528C118.841 19.04 118.709 19.492 118.445 19.884C118.181 20.276 117.817 20.584 117.353 20.808C116.889 21.032 116.349 21.144 115.733 21.144Z" fill="white"/>
</svg>
