<svg width="96" height="40" viewBox="0 0 96 40" fill="none" xmlns="http://www.w3.org/2000/svg">
<path fill-rule="evenodd" clip-rule="evenodd" d="M8 0C3.58172 0 0 3.58172 0 8V32L7.96461 40V32H88C92.4183 32 96 28.4183 96 24V8C96 3.58172 92.4183 0 88 0H8Z" fill="#6851FF"/>
<path fill-rule="evenodd" clip-rule="evenodd" d="M19.5753 9.59998C19.7875 9.59998 19.9909 9.68426 20.141 9.83429C20.291 9.98432 20.3753 10.1878 20.3753 10.4V11.2H21.1753C21.3875 11.2 21.5909 11.2843 21.741 11.4343C21.891 11.5843 21.9753 11.7878 21.9753 12C21.9753 12.2121 21.891 12.4156 21.741 12.5657C21.5909 12.7157 21.3875 12.8 21.1753 12.8H20.3753V13.6C20.3753 13.8121 20.291 14.0156 20.141 14.1657C19.9909 14.3157 19.7875 14.4 19.5753 14.4C19.3631 14.4 19.1596 14.3157 19.0096 14.1657C18.8596 14.0156 18.7753 13.8121 18.7753 13.6V12.8H17.9753C17.7631 12.8 17.5596 12.7157 17.4096 12.5657C17.2596 12.4156 17.1753 12.2121 17.1753 12C17.1753 11.7878 17.2596 11.5843 17.4096 11.4343C17.5596 11.2843 17.7631 11.2 17.9753 11.2H18.7753V10.4C18.7753 10.1878 18.8596 9.98432 19.0096 9.83429C19.1596 9.68426 19.3631 9.59998 19.5753 9.59998ZM19.5753 17.6C19.7875 17.6 19.9909 17.6843 20.141 17.8343C20.291 17.9843 20.3753 18.1878 20.3753 18.4V19.2H21.1753C21.3875 19.2 21.5909 19.2843 21.741 19.4343C21.891 19.5843 21.9753 19.7878 21.9753 20C21.9753 20.2121 21.891 20.4156 21.741 20.5657C21.5909 20.7157 21.3875 20.8 21.1753 20.8H20.3753V21.6C20.3753 21.8121 20.291 22.0156 20.141 22.1657C19.9909 22.3157 19.7875 22.4 19.5753 22.4C19.3631 22.4 19.1596 22.3157 19.0096 22.1657C18.8596 22.0156 18.7753 21.8121 18.7753 21.6V20.8H17.9753C17.7631 20.8 17.5596 20.7157 17.4096 20.5657C17.2596 20.4156 17.1753 20.2121 17.1753 20C17.1753 19.7878 17.2596 19.5843 17.4096 19.4343C17.5596 19.2843 17.7631 19.2 17.9753 19.2H18.7753V18.4C18.7753 18.1878 18.8596 17.9843 19.0096 17.8343C19.1596 17.6843 19.3631 17.6 19.5753 17.6ZM25.1753 9.59998C25.3518 9.59992 25.5235 9.65827 25.6634 9.76593C25.8033 9.87358 25.9037 10.0245 25.9489 10.1952L26.8921 13.76L29.5753 15.3072C29.6969 15.3774 29.7979 15.4784 29.8681 15.6C29.9383 15.7216 29.9753 15.8596 29.9753 16C29.9753 16.1404 29.9383 16.2783 29.8681 16.4C29.7979 16.5216 29.6969 16.6226 29.5753 16.6928L26.8921 18.2408L25.9481 21.8048C25.9028 21.9753 25.8024 22.126 25.6626 22.2336C25.5228 22.3411 25.3513 22.3994 25.1749 22.3994C24.9985 22.3994 24.827 22.3411 24.6872 22.2336C24.5473 22.126 24.447 21.9753 24.4017 21.8048L23.4585 18.24L20.7753 16.6928C20.6537 16.6226 20.5527 16.5216 20.4825 16.4C20.4123 16.2783 20.3753 16.1404 20.3753 16C20.3753 15.8596 20.4123 15.7216 20.4825 15.6C20.5527 15.4784 20.6537 15.3774 20.7753 15.3072L23.4585 13.7592L24.4025 10.1952C24.4477 10.0246 24.5479 9.87381 24.6877 9.76617C24.8275 9.65852 24.9989 9.6001 25.1753 9.59998Z" fill="white"/>
<path d="M36.4392 21V12.06H38.0712V15.96H41.8752V12.06H43.5192V21H41.8752V17.4H38.0712V21H36.4392ZM50.144 21.144C49.488 21.144 48.876 21.028 48.308 20.796C47.74 20.564 47.244 20.24 46.82 19.824C46.396 19.408 46.064 18.92 45.824 18.36C45.592 17.792 45.476 17.18 45.476 16.524C45.476 15.86 45.592 15.248 45.824 14.688C46.056 14.128 46.384 13.64 46.808 13.224C47.232 12.808 47.728 12.488 48.296 12.264C48.864 12.032 49.48 11.916 50.144 11.916C50.808 11.916 51.424 12.032 51.992 12.264C52.56 12.496 53.056 12.82 53.48 13.236C53.904 13.644 54.232 14.128 54.464 14.688C54.704 15.248 54.824 15.86 54.824 16.524C54.824 17.18 54.704 17.792 54.464 18.36C54.224 18.92 53.892 19.408 53.468 19.824C53.044 20.24 52.548 20.564 51.98 20.796C51.42 21.028 50.808 21.144 50.144 21.144ZM50.144 19.656C50.584 19.656 50.988 19.58 51.356 19.428C51.724 19.268 52.044 19.048 52.316 18.768C52.596 18.488 52.808 18.156 52.952 17.772C53.104 17.388 53.18 16.972 53.18 16.524C53.18 16.076 53.104 15.664 52.952 15.288C52.808 14.904 52.596 14.572 52.316 14.292C52.044 14.004 51.724 13.784 51.356 13.632C50.988 13.48 50.584 13.404 50.144 13.404C49.712 13.404 49.312 13.48 48.944 13.632C48.576 13.784 48.252 14.004 47.972 14.292C47.7 14.572 47.488 14.904 47.336 15.288C47.184 15.664 47.108 16.076 47.108 16.524C47.108 16.972 47.184 17.388 47.336 17.772C47.488 18.156 47.7 18.488 47.972 18.768C48.252 19.048 48.576 19.268 48.944 19.428C49.312 19.58 49.712 19.656 50.144 19.656ZM60.2191 21.144C59.5311 21.144 58.9191 21 58.3831 20.712C57.8551 20.424 57.4391 20.028 57.1351 19.524C56.8311 19.02 56.6791 18.448 56.6791 17.808V12.06H58.3111V17.724C58.3111 18.092 58.3911 18.424 58.5511 18.72C58.7191 19.016 58.9471 19.248 59.2351 19.416C59.5231 19.576 59.8511 19.656 60.2191 19.656C60.5951 19.656 60.9231 19.576 61.2031 19.416C61.4911 19.248 61.7151 19.016 61.8751 18.72C62.0431 18.424 62.1271 18.092 62.1271 17.724V12.06H63.7591V17.808C63.7591 18.448 63.6071 19.02 63.3031 19.524C62.9991 20.028 62.5791 20.424 62.0431 20.712C61.5151 21 60.9071 21.144 60.2191 21.144ZM69.0804 21.144C68.5124 21.144 67.9844 21.04 67.4964 20.832C67.0164 20.624 66.6004 20.336 66.2484 19.968C65.9044 19.592 65.6524 19.156 65.4924 18.66L66.8484 18.072C67.0644 18.584 67.3764 18.988 67.7844 19.284C68.1924 19.572 68.6524 19.716 69.1644 19.716C69.4524 19.716 69.7004 19.672 69.9084 19.584C70.1244 19.488 70.2884 19.36 70.4004 19.2C70.5204 19.04 70.5804 18.848 70.5804 18.624C70.5804 18.36 70.5004 18.144 70.3404 17.976C70.1884 17.8 69.9564 17.664 69.6444 17.568L67.9284 17.016C67.2324 16.8 66.7084 16.476 66.3564 16.044C66.0044 15.612 65.8284 15.104 65.8284 14.52C65.8284 14.008 65.9524 13.556 66.2004 13.164C66.4564 12.772 66.8084 12.468 67.2564 12.252C67.7124 12.028 68.2324 11.916 68.8164 11.916C69.3524 11.916 69.8444 12.012 70.2924 12.204C70.7404 12.388 71.1244 12.648 71.4444 12.984C71.7724 13.312 72.0164 13.7 72.1764 14.148L70.8324 14.748C70.6564 14.3 70.3924 13.956 70.0404 13.716C69.6884 13.468 69.2804 13.344 68.8164 13.344C68.5444 13.344 68.3044 13.392 68.0964 13.488C67.8884 13.576 67.7244 13.704 67.6044 13.872C67.4924 14.032 67.4364 14.224 67.4364 14.448C67.4364 14.696 67.5164 14.916 67.6764 15.108C67.8364 15.292 68.0804 15.436 68.4084 15.54L70.0524 16.056C70.7644 16.288 71.2964 16.608 71.6484 17.016C72.0084 17.424 72.1884 17.928 72.1884 18.528C72.1884 19.04 72.0564 19.492 71.7924 19.884C71.5284 20.276 71.1644 20.584 70.7004 20.808C70.2364 21.032 69.6964 21.144 69.0804 21.144ZM74.1579 21V12.06H80.0979V13.5H75.7899V15.792H79.8579V17.232H75.7899V19.56H80.0979V21H74.1579Z" fill="white"/>
</svg>
