<svg width="32" height="32" viewBox="0 0 32 32" fill="none" xmlns="http://www.w3.org/2000/svg">
<g clip-path="url(#clip0_3_1013)">
<path d="M25.3335 11.6133L18.2229 6.08268C17.5989 5.59722 16.8308 5.33365 16.0402 5.33365C15.2496 5.33365 14.4816 5.59722 13.8575 6.08268L6.74554 11.6133C6.31813 11.9457 5.97233 12.3714 5.73454 12.8578C5.49676 13.3442 5.37328 13.8786 5.37354 14.42V24.02C5.37354 24.7273 5.65449 25.4055 6.15458 25.9056C6.65468 26.4057 7.33296 26.6867 8.0402 26.6867H24.0402C24.7474 26.6867 25.4257 26.4057 25.9258 25.9056C26.4259 25.4055 26.7069 24.7273 26.7069 24.02V14.42C26.7069 13.3227 26.2002 12.2867 25.3335 11.6133Z" fill="#6851FF" stroke="#6851FF" stroke-width="3" stroke-linecap="round" stroke-linejoin="round"/>
<path d="M21.3332 20C18.3865 21.7773 13.6105 21.7773 10.6665 20" stroke="#F9FAFB" stroke-width="3" stroke-linecap="round" stroke-linejoin="round"/>
</g>
<defs>
<clipPath id="clip0_3_1013">
<rect width="32" height="32" fill="white"/>
</clipPath>
</defs>
</svg>
